# Alias OBJ Model File
# Exported from SketchUp. (c) 2000-2012 Trimble Navigation Limited
# File units = meters

mtllib buttonP.mtl

g Mesh1 Model

usemtl Color_G16
v 0.2 0.2 -0.8
vt 31.4961 7.87402
vn 1 0 -0
v 0.2 0.2 -0.2
vt 7.87402 7.87402
v 0.2 0.1 -0.2
vt 7.87402 3.93701
v 0.2 0.1 -0.8
vt 31.4961 3.93701
f 1/1/1 2/2/1 3/3/1 4/4/1 

usemtl Color_A06
vt 7.87402 31.4961
vn 0 1 -0
v 3.60956e-016 0.2 -1
vt 1.42109e-014 39.3701
f 1/5/2 5/6/2 2/2/2

v 2 0.2 -1
vt 78.7402 39.3701
f 5/6/2 1/5/2 6/7/2

v 1.8 0.2 -0.8
vt 70.8661 31.4961
f 6/7/2 1/5/2 7/8/2

usemtl Color_G16
vt 70.8661 7.87402
vn 0 0 1
v 1.8 0.1 -0.8
vt 70.8661 3.93701
f 7/9/3 1/2/3 4/3/3 8/10/3 

v 1.8 0.1 -0.2
f 8/8/2 4/5/2 3/2/2 9/9/2 

vt -7.87402 7.87402
vn 0 0 -1
v 1.8 0.2 -0.2
vt -70.8661 7.87402
vt -70.8661 3.93701
vt -7.87402 3.93701
f 2/11/4 10/12/4 9/13/4 3/14/4 

usemtl Color_A06
v 2 0.2 -1.80478e-016
vt 78.7402 7.10543e-015
f 2/2/2 11/15/2 10/9/2

v 3.60956e-016 0.2 -1.80478e-016
vt 1.42109e-014 7.10543e-015
f 2/2/2 12/16/2 11/15/2

f 12/16/2 2/2/2 5/6/2

v 0 0 -0
vt 0 0
vn -1 1.80478e-015 5.21156e-034
vt -7.10543e-015 7.87402
vt -39.3701 7.87402
v 0 0 -1
vt -39.3701 3.70304e-047
f 13/17/5 12/18/5 5/19/5 14/20/5 

v 2 0 -0
vt 78.7402 9.25759e-048
vn -1.30289e-034 9.02389e-016 1
vt 78.7402 7.87402
vt 1.42109e-014 7.87402
f 15/21/6 11/22/6 12/23/6 13/17/6 

v 2 0 -1
vt 39.3701 0
vt 39.3701 7.87402
vt 7.10543e-015 7.87402
f 16/24/1 6/25/1 11/26/1 15/17/1 

vt -78.7402 0
vt -1.42109e-014 7.87402
vt -78.7402 7.87402
f 16/27/4 14/17/4 5/28/4 6/29/4 

vt -78.7402 39.3701
vn 0 -1 -0
vt 0 39.3701
f 16/30/7 15/27/7 13/17/7 14/31/7 

f 6/7/2 7/8/2 11/15/2

f 10/9/2 11/15/2 7/8/2

usemtl Color_G16
vn -1 0 -0
vt -31.4961 7.87402
vt -31.4961 3.93701
f 10/11/8 7/32/8 8/33/8 9/14/8 

