# Alias OBJ Model File
# Exported from SketchUp. (c) 2000-2012 Trimble Navigation Limited
# File units = meters

mtllib buttonR.mtl

g Mesh1 Model

usemtl Color_A06
v 2 0 -1
vt -78.7402 -3.55271e-015
vn 6.01593e-017 9.02389e-017 -1
v 0 0 -1
vt 2.36848e-015 -3.55271e-015
v 3.60956e-016 0.5 -1
vt -1.18424e-014 19.685
v 2 0.5 -1
vt -78.7402 19.685
f 1/1/1 2/2/1 3/3/1 4/4/1 

vt -78.7402 39.3701
vn 0 -1 -0
v 2 0 -0
vt -78.7402 0
v 0 0 -0
vt 0 0
vt 0 39.3701
f 1/5/2 5/6/2 6/7/2 2/8/2 

vt 39.3701 0
vn 1 0 -0
vt 39.3701 19.685
v 2 0.5 -0
vt 0 19.685
f 1/9/3 4/10/3 7/11/3 5/7/3 

vt 78.7402 39.3701
vn 0 1 -0
v 1.8 0.5 -0.8
vt 70.8661 31.4961
vt 78.7402 0
f 4/12/4 8/13/4 7/14/4

v 0.2 0.5 -0.8
vt 7.87402 31.4961
f 4/12/4 9/15/4 8/13/4

vt 1.42109e-014 39.3701
f 3/16/4 9/15/4 4/12/4

v 0.2 0.5 -0.2
vt 7.87402 7.87402
f 9/15/4 3/16/4 10/17/4

v 3.60956e-016 0.5 -0
vt 1.42109e-014 0
f 11/18/4 10/17/4 3/16/4

f 10/17/4 11/18/4 7/14/4

vn 0 0 1
vt 78.7402 19.685
vt 1.42109e-014 19.685
f 5/14/5 7/19/5 11/20/5 6/7/5 

vn -1 7.21911e-016 6.09753e-033
vt 8.66511e-047 19.685
vt -39.3701 19.685
vt -39.3701 1.73302e-046
f 6/7/6 11/21/6 3/22/6 2/23/6 

v 1.8 0.5 -0.2
vt 70.8661 7.87402
f 10/17/4 7/14/4 12/24/4

f 12/24/4 7/14/4 8/13/4

usemtl Color_F11
vt -7.87402 19.685
vn -1 0 -0
vt -31.4961 19.685
v 1.8 0.4 -0.8
vt -31.4961 15.748
v 1.8 0.4 -0.2
vt -7.87402 15.748
f 12/25/7 8/26/7 13/27/7 14/28/7 

vt 70.8661 19.685
vt 7.87402 19.685
v 0.2 0.4 -0.8
vt 7.87402 15.748
vt 70.8661 15.748
f 8/29/5 9/30/5 15/31/5 13/32/5 

vt 31.4961 19.685
v 0.2 0.4 -0.2
vt 31.4961 15.748
f 9/33/3 10/30/3 16/31/3 15/34/3 

vn 0 0 -1
vt -70.8661 19.685
vt -70.8661 15.748
f 10/25/8 12/35/8 14/36/8 16/28/8 

f 13/13/4 15/15/4 16/17/4 14/24/4 

