# Alias OBJ Model File
# Exported from SketchUp, (c) 2000-2012 Trimble Navigation Limited
# File units = meters

mtllib cube.mtl

g Mesh1 Model

usemtl Color_E01
v 0 0 -0
vt 0 0
vn 0 -1 -0
v 0 0 -1
vt 0 39.3701
v 1 0 -1
vt -39.3701 39.3701
v 1 0 -0
vt -39.3701 0
f 1/1/1 2/2/1 3/3/1 4/4/1 

usemtl Color_K03
vn -1 0 -0
v 0 1 -0
v 0 1 -1
f 2/4/2 1/1/2 5/2/2 6/3/2 

usemtl Color_J21
vn 0 0 1
vt 39.3701 0
v 1 1 -0
vt 39.3701 39.3701
f 1/1/3 4/5/3 7/6/3 5/2/3 

usemtl Color_009
vn 1 0 -0
v 1 1 -1
f 4/1/4 3/5/4 8/6/4 7/2/4 

usemtl Color_G07
vn 0 0 -1
f 3/4/5 2/1/5 6/2/5 8/3/5 

usemtl Color_A01
vn 0 1 -0
f 6/2/6 5/1/6 7/5/6 8/6/6 

