# Alias OBJ Model File
# Exported from SketchUp, (c) 2000-2012 Trimble Navigation Limited
# File units = millimeters

mtllib hombre.mtl

#g Mesh1 leg1 Model

usemtl Color_B21
v 200 165 -0
vt 7.87402 1.5748
vn 0 1 -0
v 0 165 -0
vt 0 1.5748
v 0 165 40
vt 0 0
v 200 165 40
vt 7.87402 0
f 1/1/1 2/2/1 3/3/1 4/4/1 

vt 7.87402 6.49606
vn 0 0 1
v 200 210 -0
vt 7.87402 8.26772
v 0 210 -0
vt 0 8.26772
vt 0 6.49606
f 1/5/2 5/6/2 6/7/2 2/8/2 

v 200 0 -200
vt 9.44882 0
vn 1 0 -0
v 200 210 -200
vt 9.44882 8.26772
vt 1.5748 8.26772
vt 1.5748 6.49606
v 200 0 40
f 7/9/3 8/10/3 5/11/3 1/12/3 4/8/3 9/3/3 

v 0 0 -200
vn 0 0 -1
v 0 210 -200
vt -7.87402 8.26772
vt -7.87402 0
f 10/3/4 11/7/4 8/13/4 7/14/4 

vt -1.5748 6.49606
vn -1 0 -0
vt -1.5748 8.26772
vt -9.44882 8.26772
vt -9.44882 0
v 0 0 40
f 2/15/5 6/16/5 11/17/5 10/18/5 12/3/5 3/8/5 

usemtl Color_I12
v 0 950 -200
vt -9.44882 37.4016
v 0 950 -0
vt -1.5748 37.4016
f 13/19/5 11/17/5 6/16/5 14/20/5 

v 200 950 -200
vt -7.87402 37.4016
vt 0 37.4016
f 15/21/4 8/13/4 11/7/4 13/22/4 

v 200 950 -0
vt 1.5748 37.4016
vt 9.44882 37.4016
f 16/23/3 5/11/3 8/10/3 15/24/3 

vt 7.87402 37.4016
f 14/22/2 6/7/2 5/6/2 16/25/2 

usemtl Color_B21
vt 7.87402 9.44882
vt 0 9.44882
f 8/26/1 11/27/1 6/2/1 5/1/1 

usemtl Color_I12
f 15/26/1 13/27/1 14/2/1 16/1/1 

usemtl Color_B21
vn 0 -1 -0
vt -7.87402 9.44882
f 10/27/6 7/28/6 9/14/6 12/3/6 

f 9/4/2 4/5/2 3/8/2 12/3/2 

#g Mesh2 Torso1 Model

usemtl Color_I12
v 780 950 -200
vt -30.7087 7.87402
v 780 950 -1.12799e-014
vt -30.7087 4.44089e-016
vt 0 7.87402
f 17/29/6 18/30/6 14/3/6 13/31/6 

vt 7.87402 -2.74219
vn 0.996005 0.089297 1.06211e-018
v 763.869 1129.93 -194.83
vt 7.67046 4.36991
v 763.869 1129.93 -5.17028
vt 0.203554 4.36991
vt 4.76836e-016 -2.74219
f 17/32/7 19/33/7 20/34/7 18/35/7 

vt 3.10944e-019 -0.226171
vn 3.94735e-020 0.0287238 -0.999587
v 16.1313 1129.93 -194.83
vt -0.635089 6.86044
vt -30.0736 6.86044
vt -30.7087 -0.226171
f 13/36/8 21/37/8 19/38/8 17/39/8 

vn -0.996005 0.089297 7.51247e-018
v 16.1313 1129.93 -5.17028
vt -0.203554 7.1121
vt -7.67046 7.1121
vt -7.87402 5.3034e-018
f 14/3/9 22/40/9 21/41/9 13/42/9 

vn 1.08327e-017 0.0287238 0.999587
vt 30.7087 3.19682e-018
vt 30.0736 7.08661
vt 0.635089 7.08661
f 14/3/10 18/43/10 20/44/10 22/45/10 

usemtl FrontColor
vt 30.0736 0.203554
vt 30.0736 7.67046
vt 0.635089 7.67046
vt 0.635089 0.203554
f 20/46/1 19/47/1 21/48/1 22/49/1 

usemtl Color_C11
v 702 1820 -25
vt 0.984252 31.6472
vn 0.996005 0.089297 9.76092e-018
v 702 1820 -175
vt 6.88976 31.6472
f 23/50/11 20/34/11 19/33/11 24/51/11 

vn 7.5382e-018 0.0287238 0.999587
vt 27.6378 34.2661
v 78 1820 -25
vt 3.07087 34.2661
f 22/45/12 20/44/12 23/52/12 25/53/12 

vt 27.6378 33.2392
vn 6.44494e-018 0.270746 0.962651
v 455.52 1900 -47.5
vt 17.9339 36.511
v 324.48 1900 -47.5
vt 12.7748 36.511
vt 3.07087 33.2392
f 23/54/13 26/55/13 27/56/13 25/57/13 

vt 1.87008 -5.5114
vn 0.308716 0.951154 7.39786e-018
vt 0.984252 -15.7137
vt 6.88976 -15.7137
v 455.52 1900 -152.5
vt 6.00394 -5.5114
f 26/58/14 23/59/14 24/60/14 28/61/14 

v 78 1820 -175
vt -3.07087 31.1073
vn 1.01762e-018 0.270746 -0.962651
v 324.48 1900 -152.5
vt -12.7748 34.3791
vt -17.9339 34.3791
vt -27.6378 31.1073
f 29/62/15 30/63/15 28/64/15 24/65/15 

vt -0.984252 13.495
vn -0.308716 0.951154 7.39786e-018
vt -1.87008 23.6973
vt -6.00394 23.6973
vt -6.88976 13.495
f 25/66/16 27/67/16 30/68/16 29/69/16 

usemtl Color_B04
vt -6.00394 37.4016
vt -1.87008 37.4016
v 324.48 2000 -47.5
vt -1.87008 41.3386
v 324.48 2000 -152.5
vt -6.00394 41.3386
f 30/70/5 27/71/5 31/72/5 32/73/5 

vt 12.7748 37.4016
vt 17.9339 37.4016
v 455.52 2000 -47.5
vt 17.9339 41.3386
vt 12.7748 41.3386
f 27/74/2 26/75/2 33/76/2 31/77/2 

vt 1.87008 37.4016
vt 6.00394 37.4016
v 455.52 2000 -152.5
vt 6.00394 41.3386
vt 1.87008 41.3386
f 26/78/3 28/79/3 34/80/3 33/81/3 

vt -17.9339 37.4016
vt -12.7748 37.4016
vt -12.7748 41.3386
vt -17.9339 41.3386
f 28/82/4 30/83/4 32/84/4 34/85/4 

usemtl FrontColor
vt 17.9339 1.87008
vt 17.9339 6.00394
vt 12.7748 6.00394
vt 12.7748 1.87008
f 33/86/1 34/87/1 32/88/1 31/89/1 

usemtl Color_C11
vt -6.88976 34.3894
vn -0.996005 0.089297 -8.48191e-018
vt -0.984252 34.3894
f 29/90/17 21/41/17 22/40/17 25/91/17 

vt -27.6378 34.0399
vn 1.30495e-018 0.0287238 -0.999587
vt -3.07087 34.0399
f 24/92/18 19/38/18 21/37/18 29/93/18 

#g Mesh3 leg2 Model

usemtl Color_B21
v 780 165 -1.12799e-014
v 580 165 -1.12799e-014
v 580 165 40
v 780 165 40
f 35/1/1 36/2/1 37/3/1 38/4/1 

v 780 210 -1.12799e-014
v 580 210 -1.12799e-014
f 35/5/2 39/6/2 40/7/2 36/8/2 

v 780 0 -200
v 780 210 -200
v 780 0 40
f 41/9/3 42/10/3 39/11/3 35/12/3 38/8/3 43/3/3 

v 580 0 -200
v 580 210 -200
f 44/3/4 45/7/4 42/13/4 41/14/4 

v 580 0 40
f 36/15/5 40/16/5 45/17/5 44/18/5 46/3/5 37/8/5 

usemtl Color_I12
v 580 950 -200
v 580 950 -1.12799e-014
f 47/19/5 45/17/5 40/16/5 48/20/5 

f 17/21/4 42/13/4 45/7/4 47/22/4 

f 18/23/3 39/11/3 42/10/3 17/24/3 

f 48/22/2 40/7/2 39/6/2 18/25/2 

usemtl FrontColor
f 42/26/1 45/27/1 40/2/1 39/1/1 

usemtl Color_I12
f 17/26/1 47/27/1 48/2/1 18/1/1 

usemtl Color_B21
f 44/27/6 41/28/6 43/14/6 46/3/6 

f 43/4/2 38/5/2 37/8/2 46/3/2 

#g Mesh4 arm1 Model

usemtl Color_B04
v 831.481 1831.61 -25
vt -0.135161 5.53813
vn -0.089297 0.996005 -0
v 1419.12 1884.29 -25
vt -0.135161 28.7665
v 1419.12 1884.29 -175
vt -6.04067 28.7665
v 831.481 1831.61 -175
vt -6.04067 5.53813
f 49/94/19 50/95/19 51/96/19 52/97/19 

v 842.192 1712.14 -21.5669
vt 5.51935 0.457248
vn -0.00255471 0.0284948 0.999591
v 1429.83 1764.82 -21.5669
vt 28.6548 2.53231
vt 28.2328 7.23783
vt 5.0973 5.16277
f 53/98/20 54/99/20 50/100/20 49/101/20 

v 842.192 1712.14 -178.433
vt 6.17583 5.53813
vn 0.089297 -0.996005 -0
v 1429.83 1764.82 -178.433
vt 6.17583 28.7665
vt 0 28.7665
vt 0 5.53813
f 55/102/21 56/103/21 54/104/21 53/105/21 

vt -5.11309 4.98679
vn -0.00255471 0.0284948 -0.999591
vt -28.2486 7.06185
vt -28.6706 2.35633
vt -5.53513 0.28127
f 52/106/22 51/107/22 56/108/22 55/109/22 

vt 0.135161 4.68482
vn 0.996005 0.089297 1.316e-018
vt 3.78612e-017 -0.0376568
vt 6.17583 -0.0376568
vt 6.04067 4.68482
f 50/110/23 54/111/23 56/112/23 51/113/23 

vt 9.49199e-018 -0.0376568
vn -0.996005 -0.089297 1.71289e-018
vt -0.135161 4.68482
vt -6.04067 4.68482
vt -6.17583 -0.0376568
f 53/114/24 49/115/24 52/116/24 55/117/24 

usemtl Color_C11
vt -0.000345438 4.70555
v 712.711 1700.53 -21.5669
vt 0.421702 3.07107e-005
f 49/101/20 23/118/20 57/119/20 53/98/20 

vt -6.04067 0.420018
vt -0.135161 0.420018
f 52/97/19 24/120/19 23/121/19 49/94/19 

v 712.711 1700.53 -178.433
vt -0.437485 -0.175948
vt -0.0154384 4.52957
f 55/109/22 58/122/22 24/123/22 52/106/22 

vt 0 0.420018
vt 6.17583 0.420018
f 53/105/21 57/124/21 58/125/21 55/102/21 

usemtl Color_B04
vt -5.57187e-019 -0.0376568
vn -0.996005 -0.089297 -1.316e-018
f 57/126/25 23/115/25 24/116/25 58/117/25 

#g Mesh5 arm2 Model

v -51.4807 1831.61 -175
vn 0.089297 0.996005 -0
v -639.124 1884.29 -175
v -639.124 1884.29 -25
v -51.4807 1831.61 -25
f 59/97/26 60/96/26 61/95/26 62/94/26 

v -62.1919 1712.14 -178.433
vn 0.00255471 0.0284948 -0.999591
v -649.835 1764.82 -178.433
f 63/109/27 64/108/27 60/107/27 59/106/27 

v -62.1919 1712.14 -21.5669
vn -0.089297 -0.996005 -0
v -649.835 1764.82 -21.5669
f 65/105/28 66/104/28 64/103/28 63/102/28 

vn 0.00255471 0.0284948 0.999591
f 62/101/29 61/100/29 66/99/29 65/98/29 

vn -0.996005 0.089297 1.316e-018
f 60/113/30 64/112/30 66/111/30 61/110/30 

vn 0.996005 -0.089297 1.71289e-018
f 63/117/31 59/116/31 62/115/31 65/114/31 

usemtl Color_C11
v 67.2887 1700.53 -178.433
f 59/106/27 29/123/27 67/122/27 63/109/27 

f 62/94/26 25/121/26 29/120/26 59/97/26 

v 67.2887 1700.53 -21.5669
f 65/98/29 68/119/29 25/118/29 62/101/29 

f 63/102/28 67/125/28 68/124/28 65/105/28 

usemtl Color_B04
vn 0.996005 -0.089297 -1.316e-018
f 67/117/32 29/116/32 25/115/32 68/126/32 

#g Mesh6 head1 Model

vt 7.35165 -0.780454
vn 8.73191e-018 -0.444225 0.895915
v 511.212 2090 -2.875
vt 9.54425 3.1745
v 268.788 2090 -2.875
vt 0 3.1745
vt 2.1926 -0.780454
f 33/127/33 69/128/33 70/129/33 31/130/33 

vt 1.75689 3.86846
vn 0.850359 -0.526202 -3.86154e-018
vt 5.89075 3.86846
v 511.212 2090 -197.125
vt 7.64764 8.03529
vt -4.33411e-017 8.03529
f 33/131/34 34/132/34 71/133/34 69/134/34 

vt -2.1926 5.89075
vt -7.35165 5.89075
vt -7.35165 1.75689
vt -2.1926 1.75689
f 32/135/6 34/136/6 33/137/6 31/138/6 

vt -2.1926 2.61682
vn -4.78847e-018 -0.444225 -0.895915
v 268.788 2090 -197.125
vt -4.08749e-017 6.57177
vt -9.54425 6.57177
vt -7.35165 2.61682
f 32/139/35 72/140/35 71/141/35 34/142/35 

vt 0 3.01308
vn -0.850359 -0.526202 -7.67112e-018
vt -7.64764 3.01308
vt -5.89075 -1.15375
vt -1.75689 -1.15375
f 70/143/36 72/144/36 32/145/36 31/146/36 

vt -7.64764 3.54331
vt 0 3.54331
v 268.788 2290 -2.875
vt 0 11.4173
v 268.788 2290 -197.125
vt -7.64764 11.4173
f 72/147/5 70/148/5 73/149/5 74/150/5 

vt 9.54425 3.54331
v 511.212 2290 -2.875
vt 9.54425 11.4173
f 70/148/2 69/151/2 75/152/2 73/149/2 

vt 7.64764 3.54331
v 511.212 2290 -197.125
vt 7.64764 11.4173
f 69/148/3 71/153/3 76/154/3 75/149/3 

vt -9.54425 3.54331
vt -9.54425 11.4173
f 71/155/4 72/148/4 74/149/4 76/156/4 

vt 9.54425 7.64764
vt 0 7.64764
vt 9.54425 0
f 76/157/1 74/158/1 73/3/1 75/159/1 

vt -9.54425 6.83169
vn -1.14923e-017 0.444225 -0.895915
vt -9.80998e-017 6.83169
v 324.48 2380 -152.5
vt -2.1926 10.7866
v 455.52 2380 -152.5
vt -7.35165 10.7866
f 76/160/37 74/161/37 77/162/37 78/163/37 

vt -7.64764 9.70883
vn -0.850359 0.526202 -7.67112e-018
vt -6.16298e-033 9.70883
v 324.48 2380 -47.5
vt -1.75689 13.8757
vt -5.89075 13.8757
f 74/164/38 73/165/38 79/166/38 77/167/38 

v 455.52 2380 -47.5
vt 7.35165 14.1839
vn 1.54358e-017 0.444225 0.895915
vt 2.1926 14.1839
vt 0 10.229
vt 9.54425 10.229
f 80/168/39 79/169/39 73/170/39 75/171/39 

vt 7.35165 5.89075
vt 2.1926 5.89075
vt 2.1926 1.75689
vt 7.35165 1.75689
f 78/172/1 77/173/1 79/174/1 80/175/1 

vt 2.60675e-017 4.68662
vn 0.850359 0.526202 2.32252e-018
vt 7.64764 4.68662
vt 5.89075 8.85345
vt 1.75689 8.85345
f 75/176/40 76/177/40 78/178/40 80/179/40 

