# Alias OBJ Model File
# Exported from SketchUp, (c) 2000-2012 Trimble Navigation Limited
# File units = meters

mtllib reference.mtl

g Mesh1 cube1 Model

usemtl Color_A01
v 1 1 -0
vt 39.3701 0
vn 0 1 -0
v 1 1 -1
vt 39.3701 39.3701
v 0 1 -1
vt 0 39.3701
v 0 1 -0
vt 0 0
f 1/1/1 2/2/1 3/3/1 4/4/1 

usemtl Color_C01
vn 1 0 -0
v 1 0 -0
v 1 0 -1
f 2/2/2 1/3/2 5/4/2 6/1/2 

usemtl Color_J16
vn 0 0 1
v 0 0 -0
f 1/2/3 4/3/3 7/4/3 5/1/3 

usemtl Color_L11
vn -1 0 -0
vt -39.3701 39.3701
v 0 0 -1
vt -39.3701 0
f 4/3/4 3/5/4 8/6/4 7/4/4 

usemtl Color_J07
vn 0 0 -1
f 3/3/5 2/5/5 6/6/5 8/4/5 

usemtl Color_G12
vn 0 -1 -0
f 6/5/6 5/6/6 7/4/6 8/3/6 

g Mesh2 cube2 Model

usemtl Color_A01
v 3 1 -0
v 3 1 -1
v 2 1 -1
v 2 1 -0
f 9/1/1 10/2/1 11/3/1 12/4/1 

usemtl Color_C01
v 3 0 -0
v 3 0 -1
f 10/2/2 9/3/2 13/4/2 14/1/2 

usemtl Color_J16
v 2 0 -0
f 9/2/3 12/3/3 15/4/3 13/1/3 

usemtl Color_L11
v 2 0 -1
f 12/3/4 11/5/4 16/6/4 15/4/4 

usemtl Color_J07
f 11/3/5 10/5/5 14/6/5 16/4/5 

usemtl Color_G12
f 14/5/6 13/6/6 15/4/6 16/3/6 

g Mesh3 pyramid1 Model

usemtl Color_J16
v 1 0 -2
vn 0 0.447214 0.894427
v 0.5 1 -2.5
vt 19.685 44.0171
v 0 0 -2
f 17/1/7 18/7/7 19/4/7

usemtl Color_H02
v 1 0 -3
vt 39.3701 -17.6068
vn 0.894427 0.447214 -1.29916e-031
vt 19.685 26.4103
vt -5.71854e-030 -17.6068
f 20/8/8 18/9/8 17/10/8

usemtl Color_J07
v 0 0 -3
vt 0 -17.6068
vn 0 0.447214 -0.894427
vt -19.685 26.4103
vt -39.3701 -17.6068
f 21/11/9 18/12/9 20/13/9

usemtl Color_B17
vn -0.894427 0.447214 -3.28014e-017
vt -19.685 44.0171
vt -39.3701 -6.45697e-016
f 19/4/10 18/14/10 21/15/10

usemtl Color_E11
f 20/5/6 17/6/6 19/4/6 21/3/6 

